<!DOCTYPE svg PUBLIC "-//W3C//DTD SVG 1.1//EN" "http://www.w3.org/Graphics/SVG/1.1/DTD/svg11.dtd">
<!-- Uploaded to: SVG Repo, www.svgrepo.com, Transformed by: SVG Repo Mixer Tools -->
<svg fill="#cfdf20" height="800px" width="800px" version="1.1" id="Capa_1" xmlns="http://www.w3.org/2000/svg" xmlns:xlink="http://www.w3.org/1999/xlink" viewBox="0 0 229.864 229.864" xml:space="preserve" stroke="#cfdf20">
<g id="SVGRepo_bgCarrier" stroke-width="0"/>
<g id="SVGRepo_tracerCarrier" stroke-linecap="round" stroke-linejoin="round"/>
<g id="SVGRepo_iconCarrier"> <g> <path d="M118.11,0L47.246,70.864H0.814v159h157v-47.686l71.237-71.07L118.11,0z M132.814,182.864h-107v-87h107V182.864z M83.093,70.864l35.017-35.017l35.017,35.017H83.093z M157.814,75.885l35.223,35.223l-35.223,35.223V75.885z"/> <path d="M97.134,136.852c0,0-4.277-4.812-10.319-4.812c-5.877,0-10.675,5.414-10.989,11.97c-0.177,3.703,0.891,6.522,2.398,9.075 c3.008,5.1,18.93,15.446,18.93,15.446s15.863-10.301,18.891-15.446c1.51-2.565,2.575-5.371,2.398-9.075 c-0.314-6.556-5.112-11.97-10.989-11.97C101.671,132.04,97.134,136.852,97.134,136.852z"/> <path d="M73.706,168.531c0,0,2.438-1.583,5.935-4.007c-3.299-2.737-6.205-5.562-7.614-7.951c-1.572-2.664-3.628-6.9-3.342-12.891 c0.497-10.379,8.336-18.508,17.847-18.508c4.199,0,7.741,1.432,10.375,3.017c2.478-1.475,5.732-2.83,9.48-2.999 c-2.202-8.009-8.753-13.996-16.498-13.996c-9.085,0-16.213,7.56-16.213,7.56s-6.72-7.56-16.213-7.56 c-9.233,0-16.773,8.507-17.266,18.807c-0.278,5.819,1.401,10.247,3.767,14.258C48.69,152.276,73.706,168.531,73.706,168.531z"/> </g> </g>
</svg>